# xmcd
#
# Track frame offsets:
#	150
#	17053
#	36663
#	56723
#	75894
#	105756
#	133140
#	153546
#	176050
#	190677
#	217885
#	233230
#	263690
#	280945
#	304399
#	320482
#	338225
#
# Disc length: 4782 seconds
#
# Revision: 2
# Processed by: cddbd v1.5.2PL0 Copyright (c) Steve Scherf et al.
# Submitted via: EZCDAudioConverter 2.1.7.1
#
DISCID=eb12ac11
DTITLE=V/A - Time To Chill: Lounge
DYEAR=2006
DGENRE=
TTITLE0=Thievery Corporation - Un Simple Historie (A Simple Story)
TTITLE1=Saint Etienne - I'm Falling
TTITLE2=Ivy - Edge Of The Ocean
TTITLE3=Stereolab - Miss Modular
TTITLE4=Morrissey - Suedehead [Sparks Mix]
TTITLE5=Aphex Twin - Windowlicker
TTITLE6=Weekend Players - Jericho [Radio Edit]
TTITLE7=DJ Shadow - Midnight In A Perfect World
TTITLE8=Orbital - Chime [7'' Single]
TTITLE9=Boards Of Canada - In A Beautiful Place Out In The Country
TTITLE10=Primal Scream - Higher Than The Sun
TTITLE11=Angelo Badalamenti - Theme From Twin Peaks ''Fire Walk With Me''
TTITLE12=Saint Etienne - Avenue [Radio Edit]
TTITLE13=Aphex Twin - Alberto Balsalm
TTITLE14=Stina Nordenstam - People Are Strange
TTITLE15=Dario G - Sunchyme [Radio Edit]
TTITLE16=Tangerine Dream - The Big Sleep In Search Of Hades
EXTD=
EXTT0=
EXTT1=
EXTT2=
EXTT3=
EXTT4=
EXTT5=
EXTT6=
EXTT7=
EXTT8=
EXTT9=
EXTT10=
EXTT11=
EXTT12=
EXTT13=
EXTT14=
EXTT15=
EXTT16=
PLAYORDER=
